<svg width="40" height="40" viewBox="0 0 40 40" fill="none" xmlns="http://www.w3.org/2000/svg">
<g clip-path="url(#clip0_1810_191)">
<path d="M20 40C31.0457 40 40 31.0457 40 20C40 8.9543 31.0457 0 20 0C8.9543 0 0 8.9543 0 20C0 31.0457 8.9543 40 20 40Z" fill="#3A559F"/>
<path d="M26.3364 17.6318L25.9341 21.1159C25.9174 21.2749 25.8429 21.4222 25.7248 21.5299C25.6066 21.6375 25.4531 21.6981 25.2932 21.7H21.6569L21.6387 32.0295C21.6399 32.152 21.5929 32.2699 21.5078 32.358C21.4228 32.446 21.3065 32.497 21.1841 32.5H17.5C17.4388 32.5 17.3781 32.4877 17.3218 32.4637C17.2654 32.4398 17.2145 32.4047 17.172 32.3605C17.1296 32.3164 17.0965 32.2641 17.0747 32.2068C17.053 32.1495 17.043 32.0885 17.0455 32.0273V21.7H14.3182C14.2326 21.6991 14.1479 21.6814 14.0691 21.6478C13.9903 21.6141 13.9189 21.5653 13.859 21.5041C13.799 21.4429 13.7517 21.3705 13.7198 21.291C13.6878 21.2116 13.6719 21.1266 13.6728 21.0409L13.6591 17.5568C13.6579 17.4709 13.6737 17.3855 13.7055 17.3056C13.7372 17.2258 13.7844 17.1529 13.8444 17.0913C13.9043 17.0297 13.9758 16.9805 14.0548 16.9465C14.1337 16.9125 14.2186 16.8944 14.3046 16.8932H17.0455V13.5295C17.0455 9.625 19.3637 7.5 22.7637 7.5H25.55C25.6362 7.50089 25.7213 7.51878 25.8005 7.55264C25.8798 7.5865 25.9515 7.63567 26.0117 7.69733C26.0719 7.75898 26.1193 7.83191 26.1512 7.91193C26.1831 7.99195 26.199 8.07749 26.1978 8.16364V11.0955C26.199 11.1816 26.1831 11.2671 26.1512 11.3472C26.1193 11.4272 26.0719 11.5001 26.0117 11.5618C25.9515 11.6234 25.8798 11.6726 25.8005 11.7065C25.7213 11.7403 25.6362 11.7582 25.55 11.7591H23.8409C21.9932 11.7591 21.6341 12.6682 21.6341 13.9818V16.8932H25.6955C25.7878 16.8943 25.8789 16.915 25.9627 16.9539C26.0465 16.9928 26.1211 17.0489 26.1817 17.1187C26.2422 17.1885 26.2873 17.2703 26.314 17.3587C26.3406 17.4471 26.3483 17.5402 26.3364 17.6318Z" fill="white"/>
</g>
<defs>
<clipPath id="clip0_1810_191">
<rect width="40" height="40" fill="white"/>
</clipPath>
</defs>
</svg>
