<svg width="40" height="40" viewBox="0 0 40 40" fill="none" xmlns="http://www.w3.org/2000/svg">
<g clip-path="url(#clip0_1450_157)">
<path d="M40 20C40 8.95431 31.0457 0 20 0C8.95431 0 0 8.95431 0 20C0 31.0457 8.95431 40 20 40C31.0457 40 40 31.0457 40 20Z" fill="url(#paint0_linear_1450_157)"/>
<path opacity="0.1" d="M35.0524 6.84186C32.1366 12.1945 28.0129 17.7155 22.8603 22.8682C17.7077 28.0208 12.1866 32.1366 6.84188 35.0524C6.50679 34.7612 6.18136 34.4576 5.86557 34.1419C3.95677 32.2968 2.4344 30.0901 1.38724 27.6506C0.340077 25.2111 -0.210927 22.5875 -0.233643 19.9328C-0.256359 17.2782 0.249667 14.6455 1.25493 12.1885C2.26019 9.73138 3.74457 7.49902 5.62152 5.62156C7.49846 3.74409 9.7304 2.25909 12.1872 1.25314C14.644 0.24719 17.2765 -0.259571 19.9312 -0.237596C22.5859 -0.215621 25.2096 0.334651 27.6494 1.38113C30.0892 2.42761 32.2963 3.94936 34.1419 5.85765C34.4577 6.17343 34.7612 6.5015 35.0524 6.84186Z" fill="white"/>
<path d="M24.7368 9.47266H15.2631C13.7276 9.47266 12.2551 10.0826 11.1693 11.1684C10.0836 12.2541 9.47363 13.7267 9.47363 15.2621V24.7358C9.47363 26.2713 10.0836 27.7439 11.1693 28.8296C12.2551 29.9153 13.7276 30.5253 15.2631 30.5253H24.7368C26.2723 30.5253 27.7448 29.9153 28.8306 28.8296C29.9163 27.7439 30.5263 26.2713 30.5263 24.7358V15.2621C30.5263 13.7267 29.9163 12.2541 28.8306 11.1684C27.7448 10.0826 26.2723 9.47266 24.7368 9.47266ZM28.6842 23.9042C28.6842 25.1717 28.1807 26.3872 27.2844 27.2835C26.3882 28.1797 25.1727 28.6832 23.9052 28.6832H16.0947C14.8272 28.6832 13.6117 28.1797 12.7155 27.2835C11.8192 26.3872 11.3157 25.1717 11.3157 23.9042V16.0937C11.3157 14.8263 11.8192 13.6107 12.7155 12.7145C13.6117 11.8183 14.8272 11.3148 16.0947 11.3148H23.9052C25.1727 11.3148 26.3882 11.8183 27.2844 12.7145C28.1807 13.6107 28.6842 14.8263 28.6842 16.0937V23.9042Z" fill="white"/>
<path d="M23.8395 16.1981L23.7895 16.1481L23.7474 16.106C22.7524 15.1144 21.4047 14.5579 20 14.5586C19.2907 14.5634 18.5892 14.708 17.9357 14.984C17.2822 15.26 16.6895 15.662 16.1915 16.1672C15.6934 16.6723 15.2998 17.2706 15.033 17.9279C14.7663 18.5853 14.6317 19.2887 14.6369 19.9981C14.6358 21.4377 15.2033 22.8195 16.2158 23.8428C16.7118 24.3448 17.3028 24.743 17.9543 25.0141C18.6059 25.2852 19.3049 25.4238 20.0105 25.4218C21.0691 25.3996 22.0983 25.0698 22.9726 24.4727C23.8469 23.8757 24.5286 23.0371 24.9346 22.0592C25.3405 21.0814 25.4531 20.0065 25.2586 18.9658C25.0642 17.9251 24.5711 16.9634 23.8395 16.1981ZM20 23.5665C19.2922 23.5764 18.5974 23.3756 18.0041 22.9896C17.4107 22.6035 16.9456 22.0498 16.6678 21.3986C16.39 20.7475 16.3122 20.0285 16.4442 19.3331C16.5762 18.6376 16.912 17.9971 17.409 17.493C17.906 16.989 18.5417 16.6441 19.2353 16.5023C19.9288 16.3605 20.6488 16.4282 21.3038 16.6968C21.9588 16.9653 22.519 17.4226 22.9134 18.0105C23.3078 18.5983 23.5184 19.2902 23.5184 19.9981C23.5219 20.4634 23.4336 20.9249 23.2587 21.3562C23.0837 21.7874 22.8254 22.18 22.4987 22.5114C22.1719 22.8428 21.7831 23.1065 21.3543 23.2876C20.9256 23.4686 20.4654 23.5634 20 23.5665Z" fill="white"/>
<path d="M26.955 14.309C26.9563 14.4779 26.9244 14.6454 26.861 14.8019C26.7976 14.9584 26.7039 15.1008 26.5853 15.2211C26.4668 15.3414 26.3257 15.4371 26.1701 15.5027C26.0145 15.5684 25.8475 15.6027 25.6786 15.6037C25.5112 15.6037 25.3454 15.5704 25.1909 15.5058C25.0364 15.4412 24.8963 15.3466 24.7786 15.2274C24.6004 15.0465 24.4791 14.8173 24.4299 14.5681C24.3807 14.319 24.4056 14.0609 24.5018 13.8258C24.5979 13.5907 24.7609 13.389 24.9705 13.2457C25.1802 13.1023 25.4273 13.0237 25.6813 13.0195C25.9785 13.0195 26.2663 13.1238 26.4944 13.3143L26.5207 13.3406C26.5632 13.3751 26.602 13.4139 26.6365 13.4564L26.6655 13.488C26.8538 13.72 26.9561 14.0101 26.955 14.309Z" fill="white"/>
</g>
<defs>
<linearGradient id="paint0_linear_1450_157" x1="5.85789" y1="5.85789" x2="34.1421" y2="34.1421" gradientUnits="userSpaceOnUse">
<stop stop-color="#FAE100"/>
<stop offset="0.15" stop-color="#FCB720"/>
<stop offset="0.3" stop-color="#FF7950"/>
<stop offset="0.5" stop-color="#FF1C74"/>
<stop offset="1" stop-color="#6C1CD1"/>
</linearGradient>
<clipPath id="clip0_1450_157">
<rect width="40" height="40" fill="white"/>
</clipPath>
</defs>
</svg>
