<svg width="40" height="40" viewBox="0 0 40 40" fill="none" xmlns="http://www.w3.org/2000/svg">
<g clip-path="url(#clip0_1450_168)">
<path d="M20 40C31.0457 40 40 31.0457 40 20C40 8.95431 31.0457 0 20 0C8.95431 0 0 8.95431 0 20C0 31.0457 8.95431 40 20 40Z" fill="#0B69C7"/>
<path d="M15.5266 12.7289C15.5272 13.2694 15.3673 13.7979 15.0674 14.2475C14.7674 14.6971 14.3408 15.0477 13.8416 15.2547C13.3424 15.4618 12.7929 15.5161 12.2628 15.4108C11.7327 15.3055 11.2457 15.0453 10.8635 14.6631C10.4814 14.2809 10.2212 13.794 10.1158 13.2638C10.0105 12.7337 10.0648 12.1843 10.2719 11.685C10.479 11.1858 10.8295 10.7592 11.2791 10.4593C11.7287 10.1593 12.2572 9.99948 12.7977 10C13.5212 10.0007 14.2149 10.2884 14.7266 10.8001C15.2382 11.3117 15.5259 12.0054 15.5266 12.7289Z" fill="white"/>
<path d="M14.2346 16.5977H11.3609C10.9874 16.5977 10.6846 16.9005 10.6846 17.274V29.324C10.6846 29.6975 10.9874 30.0003 11.3609 30.0003H14.2346C14.6081 30.0003 14.9109 29.6975 14.9109 29.324V17.274C14.9109 16.9005 14.6081 16.5977 14.2346 16.5977Z" fill="white"/>
<path d="M29.9345 23.5451V29.3793C29.9345 29.5441 29.8691 29.702 29.7526 29.8185C29.6362 29.935 29.4782 30.0004 29.3135 30.0004H26.2293C26.0646 30.0004 25.9066 29.935 25.7901 29.8185C25.6737 29.702 25.6082 29.5441 25.6082 29.3793V23.7267C25.6082 22.882 25.853 20.0425 23.403 20.0425C21.503 20.0425 21.1161 21.9951 21.0345 22.8714V29.3925C21.0311 29.554 20.9649 29.7078 20.8499 29.8213C20.735 29.9348 20.5803 29.9991 20.4187 30.0004H17.4345C17.3529 30.0007 17.272 29.9849 17.1965 29.9538C17.121 29.9227 17.0523 29.877 16.9946 29.8193C16.9369 29.7615 16.8911 29.6929 16.86 29.6174C16.829 29.5419 16.8131 29.461 16.8135 29.3793V17.2214C16.8131 17.1397 16.8289 17.0586 16.86 16.983C16.8911 16.9073 16.9367 16.8385 16.9945 16.7806C17.0522 16.7226 17.1207 16.6767 17.1963 16.6453C17.2718 16.6139 17.3528 16.5978 17.4345 16.5978H20.4187C20.5015 16.5964 20.5838 16.6115 20.6607 16.6422C20.7375 16.6729 20.8075 16.7186 20.8666 16.7767C20.9256 16.8347 20.9725 16.904 21.0045 16.9803C21.0365 17.0567 21.053 17.1386 21.053 17.2214V18.2741C21.7582 17.2214 22.8056 16.4004 25.0345 16.4004C29.9635 16.3978 29.9345 21.0109 29.9345 23.5451Z" fill="white"/>
</g>
<defs>
<clipPath id="clip0_1450_168">
<rect width="40" height="40" fill="white"/>
</clipPath>
</defs>
</svg>
