<svg width="40" height="40" viewBox="0 0 40 40" fill="none" xmlns="http://www.w3.org/2000/svg">
<g clip-path="url(#clip0_1450_176)">
<path d="M20.0008 39.9996C31.0464 39.9996 40.0006 31.0454 40.0006 19.9998C40.0006 8.95423 31.0464 0 20.0008 0C8.9552 0 0.000976562 8.95423 0.000976562 19.9998C0.000976562 31.0454 8.9552 39.9996 20.0008 39.9996Z" fill="#55ACEE"/>
<path d="M32.2514 14.3726C31.3943 14.7527 30.4723 15.0097 29.5055 15.1245C30.4927 14.5331 31.2503 13.5972 31.6078 12.4802C30.6841 13.0282 29.6606 13.4257 28.5721 13.64C27.7001 12.7113 26.4576 12.1309 25.0818 12.1309C22.4422 12.1309 20.3013 14.2717 20.3013 16.9114C20.3013 17.2861 20.3437 17.6508 20.4257 18.0009C16.4527 17.8016 12.93 15.8985 10.572 13.0054C10.1606 13.7113 9.92455 14.5331 9.92455 15.409C9.92455 17.0672 10.7691 18.531 12.0512 19.3881C11.2679 19.3635 10.5303 19.1485 9.88605 18.7895C9.88569 18.8098 9.88569 18.8301 9.88569 18.8501C9.88569 21.1664 11.5342 23.0984 13.7207 23.5372C13.32 23.647 12.8968 23.7051 12.4615 23.7051C12.1528 23.7051 11.8537 23.6756 11.562 23.6199C12.1702 25.5187 13.9354 26.901 16.0277 26.9398C14.3913 28.2222 12.3303 28.9862 10.09 28.9862C9.70494 28.9862 9.32347 28.9638 8.9502 28.9192C11.0647 30.2761 13.5781 31.0672 16.2777 31.0672C25.0708 31.0672 29.8795 23.7829 29.8795 17.465C29.8795 17.2579 29.8748 17.0515 29.8655 16.8468C30.8003 16.173 31.6107 15.3313 32.2514 14.3726Z" fill="#F1F2F2"/>
</g>
<defs>
<clipPath id="clip0_1450_176">
<rect width="40" height="40" fill="white"/>
</clipPath>
</defs>
</svg>
